<svg width="282" height="23" viewBox="0 0 282 23" fill="none" xmlns="http://www.w3.org/2000/svg">
<path fill-rule="evenodd" clip-rule="evenodd" d="M0 17.646C0 17.646 3.3654 15.5248 6.66667 17.2231C10.3555 19.1208 13.3333 17.5693 13.3333 17.5693V5.83711C13.3333 5.83711 10.356 7.3859 6.6677 5.48971C3.3657 3.79209 0 5.92365 0 5.92365V17.646Z" fill="#0D141C"/>
<path d="M35.3903 18.27C34.4423 18.27 33.5873 18.105 32.8253 17.775C32.0693 17.445 31.4453 16.974 30.9533 16.362C30.4673 15.744 30.1583 15.012 30.0263 14.166L32.2763 13.824C32.4683 14.592 32.8613 15.186 33.4553 15.606C34.0553 16.026 34.7453 16.236 35.5253 16.236C35.9873 16.236 36.4223 16.164 36.8303 16.02C37.2383 15.876 37.5683 15.666 37.8203 15.39C38.0783 15.114 38.2073 14.775 38.2073 14.373C38.2073 14.193 38.1773 14.028 38.1173 13.878C38.0573 13.722 37.9673 13.584 37.8473 13.464C37.7333 13.344 37.5833 13.236 37.3973 13.14C37.2173 13.038 37.0073 12.951 36.7673 12.879L33.4193 11.889C33.1313 11.805 32.8193 11.694 32.4833 11.556C32.1533 11.412 31.8383 11.217 31.5383 10.971C31.2443 10.719 31.0013 10.401 30.8093 10.017C30.6233 9.627 30.5303 9.147 30.5303 8.577C30.5303 7.743 30.7403 7.044 31.1603 6.48C31.5863 5.91 32.1563 5.484 32.8703 5.202C33.5903 4.92 34.3883 4.782 35.2643 4.788C36.1523 4.794 36.9443 4.947 37.6403 5.247C38.3363 5.541 38.9183 5.97 39.3863 6.534C39.8543 7.098 40.1843 7.779 40.3763 8.577L38.0453 8.982C37.9493 8.526 37.7633 8.139 37.4873 7.821C37.2173 7.497 36.8843 7.251 36.4883 7.083C36.0983 6.915 35.6813 6.825 35.2373 6.813C34.8053 6.807 34.4033 6.873 34.0313 7.011C33.6653 7.143 33.3683 7.335 33.1403 7.587C32.9183 7.839 32.8073 8.133 32.8073 8.469C32.8073 8.787 32.9033 9.048 33.0953 9.252C33.2873 9.45 33.5243 9.609 33.8063 9.729C34.0943 9.843 34.3853 9.939 34.6793 10.017L37.0013 10.665C37.3193 10.749 37.6763 10.863 38.0723 11.007C38.4683 11.151 38.8493 11.352 39.2153 11.61C39.5813 11.868 39.8813 12.207 40.1153 12.627C40.3553 13.047 40.4753 13.581 40.4753 14.229C40.4753 14.901 40.3343 15.492 40.0523 16.002C39.7763 16.506 39.4013 16.926 38.9273 17.262C38.4533 17.598 37.9103 17.85 37.2983 18.018C36.6923 18.186 36.0563 18.27 35.3903 18.27ZM48.8764 18V13.32C48.8764 13.014 48.8554 12.675 48.8134 12.303C48.7714 11.931 48.6724 11.574 48.5164 11.232C48.3664 10.884 48.1384 10.599 47.8324 10.377C47.5324 10.155 47.1244 10.044 46.6084 10.044C46.3324 10.044 46.0594 10.089 45.7894 10.179C45.5194 10.269 45.2734 10.425 45.0514 10.647C44.8354 10.863 44.6614 11.163 44.5294 11.547C44.3974 11.925 44.3314 12.411 44.3314 13.005L43.0444 12.456C43.0444 11.628 43.2034 10.878 43.5214 10.206C43.8454 9.534 44.3194 9 44.9434 8.604C45.5674 8.202 46.3354 8.001 47.2474 8.001C47.9674 8.001 48.5614 8.121 49.0294 8.361C49.4974 8.601 49.8694 8.907 50.1454 9.279C50.4214 9.651 50.6254 10.047 50.7574 10.467C50.8894 10.887 50.9734 11.286 51.0094 11.664C51.0514 12.036 51.0724 12.339 51.0724 12.573V18H48.8764ZM42.1354 18V5.04H44.0704V11.862H44.3314V18H42.1354ZM57.444 18.27C56.472 18.27 55.623 18.051 54.897 17.613C54.171 17.175 53.607 16.572 53.205 15.804C52.809 15.03 52.611 14.142 52.611 13.14C52.611 12.12 52.815 11.226 53.223 10.458C53.631 9.69 54.198 9.09 54.924 8.658C55.65 8.226 56.49 8.01 57.444 8.01C58.422 8.01 59.274 8.229 60 8.667C60.726 9.105 61.29 9.711 61.692 10.485C62.094 11.253 62.295 12.138 62.295 13.14C62.295 14.148 62.091 15.039 61.683 15.813C61.281 16.581 60.717 17.184 59.991 17.622C59.265 18.054 58.416 18.27 57.444 18.27ZM57.444 16.236C58.308 16.236 58.95 15.948 59.37 15.372C59.79 14.796 60 14.052 60 13.14C60 12.198 59.787 11.448 59.361 10.89C58.935 10.326 58.296 10.044 57.444 10.044C56.862 10.044 56.382 10.176 56.004 10.44C55.632 10.698 55.356 11.061 55.176 11.529C54.996 11.991 54.906 12.528 54.906 13.14C54.906 14.082 55.119 14.835 55.545 15.399C55.977 15.957 56.61 16.236 57.444 16.236ZM64.0079 18V8.28H65.9249V10.647L65.6909 10.341C65.8109 10.017 65.9699 9.723 66.1679 9.459C66.3719 9.189 66.6149 8.967 66.8969 8.793C67.1369 8.631 67.4009 8.505 67.6889 8.415C67.9829 8.319 68.2829 8.262 68.5889 8.244C68.8949 8.22 69.1919 8.232 69.4799 8.28V10.305C69.1919 10.221 68.8589 10.194 68.4809 10.224C68.1089 10.254 67.7729 10.359 67.4729 10.539C67.1729 10.701 66.9269 10.908 66.7349 11.16C66.5489 11.412 66.4109 11.7 66.3209 12.024C66.2309 12.342 66.1859 12.687 66.1859 13.059V18H64.0079ZM76.6244 18C75.9824 18.12 75.3524 18.171 74.7344 18.153C74.1224 18.141 73.5734 18.03 73.0874 17.82C72.6014 17.604 72.2324 17.265 71.9804 16.803C71.7584 16.383 71.6414 15.954 71.6294 15.516C71.6174 15.078 71.6114 14.583 71.6114 14.031V5.58H73.7714V13.905C73.7714 14.295 73.7744 14.637 73.7804 14.931C73.7924 15.225 73.8554 15.465 73.9694 15.651C74.1854 16.011 74.5304 16.212 75.0044 16.254C75.4784 16.296 76.0184 16.272 76.6244 16.182V18ZM69.8474 9.981V8.28H76.6244V9.981H69.8474ZM81.958 18V5.04H84.127V15.966H89.851V18H81.958ZM91.2857 6.804V4.815H93.4547V6.804H91.2857ZM91.2857 18V8.28H93.4547V18H91.2857ZM102.604 18V13.32C102.604 13.014 102.583 12.675 102.541 12.303C102.499 11.931 102.4 11.574 102.244 11.232C102.094 10.884 101.866 10.599 101.56 10.377C101.26 10.155 100.852 10.044 100.336 10.044C100.06 10.044 99.7866 10.089 99.5166 10.179C99.2466 10.269 99.0006 10.425 98.7786 10.647C98.5626 10.863 98.3886 11.163 98.2566 11.547C98.1246 11.925 98.0586 12.411 98.0586 13.005L96.7716 12.456C96.7716 11.628 96.9306 10.878 97.2486 10.206C97.5726 9.534 98.0466 9 98.6706 8.604C99.2946 8.202 100.063 8.001 100.975 8.001C101.695 8.001 102.289 8.121 102.757 8.361C103.225 8.601 103.597 8.907 103.873 9.279C104.149 9.651 104.353 10.047 104.485 10.467C104.617 10.887 104.701 11.286 104.737 11.664C104.779 12.036 104.8 12.339 104.8 12.573V18H102.604ZM95.8626 18V8.28H97.7976V11.295H98.0586V18H95.8626ZM106.86 18L106.878 5.04H109.074V12.96L112.629 8.28H115.338L111.567 13.14L115.662 18H112.791L109.074 13.32V18H106.86Z" fill="#0D141C"/>
</svg>
